<svg aria-hidden="true" style="position: absolute; width: 0; height: 0; overflow: hidden;" version="1.1" xmlns="http://www.w3.org/2000/svg" xmlns:xlink="http://www.w3.org/1999/xlink">
<defs>
<symbol id="icon-close" viewBox="0 0 32 32">
<path fill="none" stroke="#fcfcfc" style="stroke: var(--color1, #fcfcfc)" stroke-linejoin="round" stroke-linecap="round" stroke-miterlimit="4" stroke-width="2.5" d="M24 8l-16 16"></path>
<path fill="none" stroke="#fcfcfc" style="stroke: var(--color1, #fcfcfc)" stroke-linejoin="round" stroke-linecap="round" stroke-miterlimit="4" stroke-width="2.5" d="M8 8l16 16"></path>
</symbol>
<symbol id="icon-last" viewBox="0 0 32 32">
<path fill="#85aa9f" style="fill: var(--color2, #85aa9f)" d="M8.547 8l-1.88 1.88 6.107 6.12-6.107 6.12 1.88 1.88 8-8-8-8z"></path>
<path fill="#85aa9f" style="fill: var(--color2, #85aa9f)" d="M17.333 8l-1.88 1.88 6.107 6.12-6.107 6.12 1.88 1.88 8-8-8-8z"></path>
</symbol>
<symbol id="icon-next" viewBox="0 0 32 32">
<path d="M13.88 8l-1.88 1.88 6.107 6.12-6.107 6.12 1.88 1.88 8-8-8-8z"></path>
</symbol>
<symbol id="icon-prev" viewBox="0 0 32 32">
<path d="M20.12 24l1.88-1.88-6.107-6.12 6.107-6.12-1.88-1.88-8 8 8 8z"></path>
</symbol>
<symbol id="icon-first" viewBox="0 0 32 32">
<path d="M23.453 24l1.88-1.88-6.107-6.12 6.107-6.12-1.88-1.88-8 8 8 8z"></path>
<path d="M14.667 24l1.88-1.88-6.107-6.12 6.107-6.12-1.88-1.88-8 8 8 8z"></path>
</symbol>
<symbol id="icon-trash" viewBox="0 0 32 32">
<path fill="none" stroke="#85aa9f" style="stroke: var(--color2, #85aa9f)" stroke-linejoin="round" stroke-linecap="round" stroke-miterlimit="4" stroke-width="2.6" d="M4 8h24"></path>
<path fill="none" stroke="#85aa9f" style="stroke: var(--color2, #85aa9f)" stroke-linejoin="round" stroke-linecap="round" stroke-miterlimit="4" stroke-width="2.6" d="M25.333 8v18.667c0 0.707-0.281 1.386-0.781 1.886s-1.178 0.781-1.886 0.781h-13.333c-0.707 0-1.386-0.281-1.886-0.781s-0.781-1.178-0.781-1.886v-18.667M10.667 8v-2.667c0-0.707 0.281-1.386 0.781-1.886s1.178-0.781 1.886-0.781h5.333c0.707 0 1.385 0.281 1.886 0.781s0.781 1.178 0.781 1.886v2.667"></path>
<path fill="none" stroke="#85aa9f" style="stroke: var(--color2, #85aa9f)" stroke-linejoin="round" stroke-linecap="round" stroke-miterlimit="4" stroke-width="2.6" d="M13.333 14.667v8"></path>
<path fill="none" stroke="#85aa9f" style="stroke: var(--color2, #85aa9f)" stroke-linejoin="round" stroke-linecap="round" stroke-miterlimit="4" stroke-width="2.6" d="M18.667 14.667v8"></path>
</symbol>
<symbol id="icon-pencil" viewBox="0 0 32 32">
<path fill="none" stroke="#85aa9f" style="stroke: var(--color2, #85aa9f)" stroke-linejoin="round" stroke-linecap="round" stroke-miterlimit="4" stroke-width="2.6" d="M22.667 4c0.35-0.35 0.766-0.628 1.223-0.817s0.948-0.287 1.443-0.287c0.495 0 0.986 0.098 1.443 0.287s0.873 0.467 1.223 0.817c0.35 0.35 0.628 0.766 0.818 1.223s0.287 0.948 0.287 1.443c0 0.495-0.097 0.986-0.287 1.443s-0.467 0.873-0.818 1.223l-18 18-7.333 2 2-7.333 18-18z"></path>
</symbol>
<symbol id="icon-arrowRight" viewBox="0 0 32 32">
<path fill="none" stroke="#85aa9f" style="stroke: var(--color2, #85aa9f)" stroke-linejoin="round" stroke-linecap="round" stroke-miterlimit="4" stroke-width="2.4" d="M5.333 16h21.333M26.667 16l-5.333-5.333M26.667 16l-5.333 5.333"></path>
</symbol>
<symbol id="icon-plus" viewBox="0 0 32 32">
<path fill="none" stroke="#85aa9f" style="stroke: var(--color2, #85aa9f)" stroke-linejoin="round" stroke-linecap="round" stroke-miterlimit="4" stroke-width="2.4" d="M16 6.667v18.667"></path>
<path fill="none" stroke="#85aa9f" style="stroke: var(--color2, #85aa9f)" stroke-linejoin="round" stroke-linecap="round" stroke-miterlimit="4" stroke-width="2.4" d="M6.667 16h18.667"></path>
</symbol>
<symbol id="icon-arrowDown" viewBox="0 0 32 32">
<path d="M16 22.003l-10-10 1.4-1.4 8.6 8.6 8.6-8.6 1.4 1.4-10 10z"></path>
<path d="M16 22.003l-1.697 1.697 1.697 1.697 1.697-1.697-1.697-1.697zM6 12.003l-1.697-1.697-1.697 1.697 1.697 1.697 1.697-1.697zM7.4 10.603l1.697-1.697-1.697-1.697-1.697 1.697 1.697 1.697zM16 19.203l-1.697 1.697 1.697 1.697 1.697-1.697-1.697-1.697zM24.6 10.603l1.697-1.697-1.697-1.697-1.697 1.697 1.697 1.697zM26 12.003l1.697 1.697 1.697-1.697-1.697-1.697-1.697 1.697zM17.697 20.306l-10-10-3.394 3.394 10 10 3.394-3.394zM7.697 13.7l1.4-1.4-3.394-3.394-1.4 1.4 3.394 3.394zM5.703 12.3l8.6 8.6 3.394-3.394-8.6-8.6-3.394 3.394zM17.697 20.9l8.6-8.6-3.394-3.394-8.6 8.6 3.394 3.394zM22.903 12.3l1.4 1.4 3.394-3.394-1.4-1.4-3.394 3.394zM24.303 10.306l-10 10 3.394 3.394 10-10-3.394-3.394z"></path>
</symbol>
<symbol id="icon-search" viewBox="0 0 32 32">
<path stroke-linejoin="round" stroke-linecap="round" stroke-miterlimit="4" stroke-width="2.4" d="M14.667 25.333c5.891 0 10.667-4.776 10.667-10.667s-4.776-10.667-10.667-10.667c-5.891 0-10.667 4.776-10.667 10.667s4.776 10.667 10.667 10.667z"></path>
<path stroke-linejoin="round" stroke-linecap="round" stroke-miterlimit="4" stroke-width="2.4" d="M28 28l-5.8-5.8"></path>
</symbol>
<symbol id="icon-unitedKingdom" viewBox="0 0 32 32">
<path fill="#f0f0f0" style="fill: var(--color3, #f0f0f0)" d="M16 32c8.837 0 16-7.163 16-16s-7.163-16-16-16c-8.837 0-16 7.163-16 16s7.163 16 16 16z"></path>
<path fill="#0052b4" style="fill: var(--color4, #0052b4)" d="M3.308 6.259c-1.257 1.635-2.204 3.52-2.756 5.567h8.324l-5.567-5.567z"></path>
<path fill="#0052b4" style="fill: var(--color4, #0052b4)" d="M31.449 11.826c-0.552-2.047-1.5-3.932-2.756-5.567l-5.567 5.567h8.323z"></path>
<path fill="#0052b4" style="fill: var(--color4, #0052b4)" d="M0.551 20.174c0.552 2.047 1.5 3.932 2.756 5.567l5.567-5.567h-8.323z"></path>
<path fill="#0052b4" style="fill: var(--color4, #0052b4)" d="M25.741 3.308c-1.635-1.257-3.52-2.204-5.567-2.756v8.324l5.567-5.567z"></path>
<path fill="#0052b4" style="fill: var(--color4, #0052b4)" d="M6.259 28.692c1.635 1.257 3.52 2.204 5.567 2.756v-8.323l-5.567 5.567z"></path>
<path fill="#0052b4" style="fill: var(--color4, #0052b4)" d="M11.826 0.551c-2.047 0.552-3.932 1.5-5.567 2.756l5.567 5.567v-8.323z"></path>
<path fill="#0052b4" style="fill: var(--color4, #0052b4)" d="M20.174 31.449c2.047-0.552 3.932-1.5 5.567-2.756l-5.567-5.567v8.323z"></path>
<path fill="#0052b4" style="fill: var(--color4, #0052b4)" d="M23.125 20.174l5.567 5.567c1.257-1.635 2.204-3.52 2.756-5.567h-8.323z"></path>
<path fill="#d80027" style="fill: var(--color5, #d80027)" d="M31.865 13.913h-13.778v-13.778c-0.683-0.089-1.38-0.135-2.087-0.135s-1.404 0.046-2.087 0.135v13.778h-13.778c-0.089 0.683-0.135 1.38-0.135 2.087s0.046 1.404 0.135 2.087h13.778v13.778c0.683 0.089 1.38 0.135 2.087 0.135s1.404-0.046 2.087-0.135v-13.778h13.778c0.089-0.683 0.135-1.38 0.135-2.087s-0.047-1.404-0.135-2.087z"></path>
<path fill="#d80027" style="fill: var(--color5, #d80027)" d="M20.174 20.174l7.14 7.14c0.328-0.328 0.642-0.672 0.941-1.027l-6.113-6.113h-1.968z"></path>
<path fill="#d80027" style="fill: var(--color5, #d80027)" d="M11.826 20.174h-0l-7.14 7.14c0.328 0.328 0.671 0.642 1.027 0.941l6.113-6.113v-1.967z"></path>
<path fill="#d80027" style="fill: var(--color5, #d80027)" d="M11.826 11.826v-0l-7.14-7.14c-0.328 0.328-0.642 0.671-0.941 1.027l6.113 6.113h1.968z"></path>
<path fill="#d80027" style="fill: var(--color5, #d80027)" d="M20.174 11.826l7.14-7.14c-0.328-0.328-0.671-0.642-1.027-0.94l-6.113 6.113v1.968z"></path>
</symbol>
<symbol id="icon-ukraine" viewBox="0 0 32 32">
<path fill="#ffda44" style="fill: var(--color6, #ffda44)" d="M16 32c8.837 0 16-7.163 16-16s-7.163-16-16-16c-8.837 0-16 7.163-16 16s7.163 16 16 16z"></path>
<path fill="#338af3" style="fill: var(--color7, #338af3)" d="M0 16c0-8.836 7.163-16 16-16s16 7.163 16 16z"></path>
</symbol>
<symbol id="icon-eye" viewBox="0 0 32 32">
<path stroke-linejoin="round" stroke-linecap="round" stroke-miterlimit="4" stroke-width="3.2" d="M1.333 16c0 0 5.333-10.667 14.667-10.667s14.667 10.667 14.667 10.667-5.333 10.667-14.667 10.667c-9.333 0-14.667-10.667-14.667-10.667z"></path>
<path stroke-linejoin="round" stroke-linecap="round" stroke-miterlimit="4" stroke-width="3.2" d="M16 20c2.209 0 4-1.791 4-4s-1.791-4-4-4c-2.209 0-4 1.791-4 4s1.791 4 4 4z"></path>
</symbol>
<symbol id="icon-eyeOff" viewBox="0 0 32 32">
<path stroke-linejoin="round" stroke-linecap="round" stroke-miterlimit="4" stroke-width="3.2" d="M23.92 23.92c-2.279 1.737-5.054 2.7-7.92 2.747-9.333 0-14.667-10.667-14.667-10.667 1.659-3.091 3.959-5.791 6.747-7.92M13.2 5.653c0.918-0.215 1.857-0.322 2.8-0.32 9.333 0 14.667 10.667 14.667 10.667-0.809 1.514-1.775 2.94-2.88 4.253M18.827 18.827c-0.366 0.393-0.808 0.708-1.298 0.927s-1.020 0.336-1.557 0.346c-0.537 0.009-1.071-0.089-1.569-0.291s-0.95-0.501-1.33-0.88c-0.38-0.38-0.679-0.832-0.88-1.33s-0.3-1.032-0.29-1.569c0.009-0.537 0.127-1.067 0.346-1.558s0.534-0.932 0.927-1.298"></path>
<path stroke-linejoin="round" stroke-linecap="round" stroke-miterlimit="4" stroke-width="3.2" d="M1.333 1.333l29.333 29.333"></path>
</symbol>
<symbol id="icon-logo" viewBox="0 0 32 32">
<path fill="#85aa9f" style="fill: var(--color2, #85aa9f)" d="M32 16c0 8.837-7.163 16-16 16s-16-7.163-16-16c0-8.837 7.163-16 16-16s16 7.163 16 16z"></path>
<path fill="#fcfcfc" style="fill: var(--color1, #fcfcfc)" d="M16.354 15.2c4.755-3.586 4.965-5.76 0-9.6-5.060 3.922-4.408 6.001 0 9.6zM15.2 16.446c-3.586-4.755-5.76-4.965-9.6 0 3.922 5.060 6.001 4.408 9.6 0zM27.2 16.446c-3.586-4.755-5.76-4.965-9.6 0 3.922 5.060 6.001 4.408 9.6 0zM16.354 27.2c4.755-3.586 4.965-5.76 0-9.6-5.060 3.922-4.408 6.001 0 9.6z"></path>
</symbol>
<symbol id="icon-Nav" viewBox="0 0 46 32">
<path stroke-linejoin="miter" stroke-linecap="round" stroke-miterlimit="4" stroke-width="3.4286" d="M8.671 5.074h35.329"></path>
<path stroke-linejoin="miter" stroke-linecap="round" stroke-miterlimit="4" stroke-width="3.4286" d="M8.671 24.468h35.329"></path>
<path stroke-linejoin="miter" stroke-linecap="round" stroke-miterlimit="4" stroke-width="3.4286" d="M19.603 14.771h24.398"></path>
</symbol>
</defs>
</svg>
